<?xml version="1.0" encoding="UTF-8"?>
<svg xmlns="http://www.w3.org/2000/svg" viewBox="0 0 384 384">
  <defs>
    <style>
      .cls-1 {
        fill: none;
      }

      .cls-1, .cls-2, .cls-3, .cls-4, .cls-5 {
        stroke-miterlimit: 10;
      }

      .cls-1, .cls-4 {
        stroke: #51d941;
      }

      .cls-6 {
        stroke-width: 0px;
      }

      .cls-6, .cls-2 {
        fill: #088551;
      }

      .cls-2, .cls-3, .cls-5 {
        stroke: #088551;
      }

      .cls-3, .cls-5 {
        fill: #fff;
      }

      .cls-4 {
        fill: #51d941;
      }

      .cls-5 {
        stroke-width: 5px;
      }
    </style>
  </defs>
  <g id="_レイヤー_2" data-name="レイヤー 2">
    <path class="cls-4" d="m244.91,22.45c-14.9-8.51-35.98-6.2-49.93,6.58,14.19,9.35,36.05,6.31,49.93-6.58Z"/>
    <path class="cls-4" d="m148.46,14.9c16.26-5.94,35.85-.27,46.12,14.5-15.79,6.88-35.94.37-46.12-14.5Z"/>
    <path class="cls-1" d="m194.76,29.49c5.42,14.59-9.82,28.4.2,40.92"/>
  </g>
  <g id="_レイヤー_1" data-name="レイヤー 1">
    <path class="cls-5" d="m70.06,197.11c15.97-66.88,55.99-124.5,125.06-124.5s110.51,57.3,125.06,124.5c9.55,44.12,95.68,355.5,53.21,441.9-1.26,2.57.49-.22-1.31,1.4-29.65,26.68-343.89,40.32-362.61-6.01-37.24-92.15,47.53-382.64,60.58-437.3Z"/>
  </g>
  <g id="_レイヤー_3" data-name="レイヤー 3">
    <g>
      <path class="cls-3" d="m174.63,202.34h.21l.36-.14c-5.76-5.21-15.36-8.53-25.05-8.47-9.69.06-19.2,3.5-24.67,8.89,5.32,5.61,15.15,9.18,25.09,9.1,9.94-.07,19.66-3.78,24.05-9.39Z"/>
      <path class="cls-3" d="m103.2,201.99c8.43-1.6,13.7-.55,22.3.57"/>
      <path class="cls-3" d="m106.83,189.08c20.41-15.26,48.05-20.36,72.56-13.39"/>
      <path class="cls-2" d="m149.15,194.55c-3.9.3-6.52,1.65-8.14,4.04-2.39,3.53-.9,6.55.78,8.82.77,1.04,6.78,3.58,7.45,3.53,5.63-.38,4.81.23,8.09-3.08,2.27-2.29,1.57-6.45.15-9.54-1.21-2.63-5.6-3.98-8.32-3.77Z"/>
    </g>
    <g>
      <path class="cls-3" d="m217.13,201.34h-.21l-.36-.14c5.75-5.21,15.32-8.53,24.99-8.47,9.67.06,19.15,3.5,24.6,8.89-5.31,5.61-15.12,9.18-25.03,9.1-9.92-.07-19.61-3.78-23.99-9.39Z"/>
      <path class="cls-3" d="m288.39,200.99c-8.4-1.6-13.67-.55-22.25.57"/>
      <path class="cls-3" d="m284.77,188.08c-20.36-15.26-47.93-20.36-72.38-13.39"/>
      <path class="cls-2" d="m242.56,193.55c3.89.3,6.51,1.65,8.12,4.04,2.38,3.53.9,6.55-.77,8.82-.77,1.04-6.76,3.58-7.43,3.53-5.62-.38-4.8.23-8.07-3.08-2.27-2.29-1.56-6.45-.15-9.54,1.2-2.63,5.58-3.98,8.3-3.77Z"/>
    </g>
  </g>
  <g id="_レイヤー_4" data-name="レイヤー 4">
    <g>
      <path class="cls-6" d="m90.82,324.71h-.62l-14.02-27.9-1.51,17.38c-.09.96-.13,1.87-.13,2.72,0,2.5.51,4.42,1.53,5.78s2.67,2.28,4.94,2.8v.8h-14.02v-.8c1.25-.44,2.35-1.12,3.31-2.01.96-.9,1.69-1.95,2.21-3.14.55-1.32.95-3.42,1.21-6.29l1.62-18.51c-.65-1.21-1.4-2.09-2.23-2.62-.84-.53-1.9-.82-3.18-.87v-.8h12.42c-.07.17-.11.28-.13.33-.33.79-.49,1.4-.49,1.85,0,.82.44,2.11,1.31,3.85l9.93,19.71,8.21-19.18c.65-1.54.98-2.71.98-3.52s-.34-1.84-1.03-3.05h12.35v.8c-1.71.24-2.95.74-3.72,1.5-.77.76-1.15,1.88-1.15,3.35,0,.46.03.9.08,1.31l.08.64,2.16,19.05c.03.26.06.48.09.67.03.19.11.73.24,1.62.26,1.66.77,2.89,1.53,3.7.76.8,1.94,1.34,3.53,1.62v.8h-16.33v-.8c1.8-.44,3.12-1.03,3.97-1.76.85-.73,1.27-1.65,1.27-2.76,0-.43-.06-1.13-.18-2.11l-2.52-21.92-11.71,27.78Zm-15.04.26c-.82-.89-1.38-1.62-1.68-2.19-.3-.57-.53-1.3-.68-2.2-.41,1.03-.86,1.85-1.36,2.46-.5.62-1.21,1.26-2.13,1.92h5.85Zm14.66-1.75l1.41-3.34-11.81-23.51c-.58-1.21-.87-2.1-.87-2.64s.14-1.04.41-1.51h-5.9c.96.68,1.68,1.41,2.16,2.18.65.98,1.21,1.94,1.67,2.9l12.94,25.93Zm13.17,1.75h7.88l-1.33-1.08c-.58-.46-.97-1.46-1.16-3l-2.82-24.52c-.03-.44-.05-.75-.05-.92,0-.39.09-.73.26-1.01.17-.28.52-.64,1.05-1.07l1.46-1.16h-5.96l3.23,28.31.1.56c.03.41.05.72.05.92,0,.43-.08.76-.24,1-.16.24-.53.56-1.09.97l-1.39.98Z"/>
      <path class="cls-6" d="m122,314.31v.57c0,2.04.3,3.82.9,5.35.6,1.53,1.45,2.72,2.55,3.55,1.1.84,2.4,1.26,3.89,1.26.79,0,1.58-.13,2.37-.4.8-.27,1.58-.65,2.36-1.14.78-.5,1.66-1.2,2.63-2.1l.51.69c-1.76,1.71-3.44,2.94-5.02,3.67-1.58.74-3.35,1.1-5.3,1.1s-3.86-.45-5.48-1.33c-1.62-.89-2.87-2.15-3.76-3.77-.89-1.63-1.33-3.46-1.33-5.49,0-2.14.49-4.1,1.48-5.88.98-1.78,2.33-3.17,4.03-4.18,1.7-1.01,3.61-1.51,5.71-1.51,1.8,0,3.44.37,4.94,1.1,1.5.74,2.67,1.77,3.5,3.11.89,1.37,1.39,3.17,1.49,5.42h-15.48Zm6.01,11.78c-1.22-.15-2.19-.38-2.93-.69-.74-.31-1.45-.79-2.16-1.44-1.04-.96-1.86-2.22-2.44-3.79-.58-1.57-.87-3.27-.87-5.12,0-1.28.12-2.46.37-3.54s.63-2.04,1.16-2.9,1.23-1.67,2.12-2.44c-1.95,1.06-3.45,2.46-4.49,4.21-1.04,1.75-1.57,3.7-1.57,5.85,0,1.85.42,3.53,1.26,5.04s2.01,2.7,3.5,3.56c1.5.86,3.15,1.28,4.97,1.28.41,0,.77,0,1.08-.03Zm-6.01-12.68h10.24c-.02-2.31-.25-3.97-.69-4.98-.39-.92-.96-1.64-1.69-2.14-.74-.5-1.56-.76-2.46-.76-3.29,0-5.08,2.63-5.39,7.88Zm13.35,0c-.05-1.27-.28-2.41-.69-3.44-.41-1.03-.98-1.9-1.71-2.61-.73-.71-1.59-1.22-2.58-1.53.99.79,1.71,1.72,2.14,2.8s.65,2.43.65,4.06c0,.27,0,.51-.03.72h2.21Z"/>
      <path class="cls-6" d="m155.19,323.66l-.1.08c-2.31,2.04-4.77,3.05-7.37,3.05-1.87,0-3.57-.44-5.11-1.32-1.54-.88-2.75-2.11-3.63-3.67s-1.32-3.28-1.32-5.15c0-2.07.51-4.02,1.53-5.85,1.02-1.83,2.39-3.29,4.12-4.39,1.73-1.09,3.57-1.64,5.52-1.64,2.24,0,4.36.8,6.37,2.41v-10.63c0-1.42-.21-2.44-.64-3.05-.43-.62-1.22-1.01-2.36-1.18v-.56l8.24-.95v30.55c0,1.42.22,2.43.65,3.03.44.6,1.23,1,2.37,1.21v.69h-8.27v-2.62Zm-8.83,2.36c-1.04-.62-1.81-1.14-2.31-1.57-.5-.43-.98-1.02-1.46-1.77-1.16-1.87-1.75-4.06-1.75-6.57,0-2.09.32-3.87.95-5.34.63-1.47,1.73-2.99,3.29-4.54-2.16,1.25-3.79,2.76-4.89,4.53-1.1,1.77-1.66,3.74-1.66,5.92,0,2.34.69,4.35,2.07,6.01s3.3,2.77,5.76,3.34Zm8.83-17.38l-.21-.18c-1.11-.96-2.12-1.66-3.02-2.1s-1.78-.67-2.63-.67c-1.22,0-2.29.4-3.23,1.19-.94.79-1.67,1.92-2.18,3.39-.51,1.46-.77,3.19-.77,5.17s.25,3.6.74,5.11c.5,1.51,1.2,2.68,2.12,3.53.92.85,1.97,1.27,3.17,1.27,1.87,0,3.87-1.17,6.01-3.52v-13.19Zm.87,16.51h3.8l-.59-.46s-.07-.04-.1-.08l-.33-.26c-.26-.26-.39-.58-.39-.98l-.03-.51v-30.98l-4.21.46,1,.72s.05.03.1.08l.33.26c.17.12.28.28.33.47.05.2.08.62.08,1.27v30.01Z"/>
      <path class="cls-6" d="m171.46,304.82v22.46c0,.96-.03,1.87-.08,2.75-.09,1.78-.28,3.22-.59,4.33s-.79,2.03-1.44,2.79c-.72.84-1.6,1.49-2.64,1.96-1.04.47-2.11.71-3.21.71s-2.19-.23-3.14-.68c-.95-.45-1.7-1.08-2.25-1.87-.55-.79-.82-1.69-.82-2.68,0-.55.09-1.03.28-1.45.19-.42.47-.74.83-.98.37-.23.79-.35,1.27-.35.67,0,1.2.22,1.59.65.39.44.59,1.03.59,1.78,0,.33,0,.57-.03.74-.03.68-.05,1.11-.05,1.28,0,.72.14,1.29.41,1.72.27.43.66.64,1.16.64,1.13,0,1.92-.85,2.36-2.54.32-1.13.49-3.41.49-6.85v-18.66c0-1.42-.21-2.44-.64-3.05-.43-.62-1.22-1.01-2.36-1.18v-.56l8.27-.95Zm-9.91,34.07c-.55-.5-.93-.99-1.14-1.48-.21-.49-.32-1.14-.32-1.96,0-.41,0-.7.03-.87.03-.45.05-.71.05-.8,0-.29-.08-.53-.23-.72-.15-.19-.37-.28-.64-.28-.31,0-.57.17-.8.5-.22.33-.33.74-.33,1.22,0,.91.3,1.75.9,2.54.6.79,1.43,1.4,2.49,1.85Zm3.67-32.52l1.03.72s.03,0,.04.01.03.03.06.06l.33.26c.15.1.26.26.31.46.05.21.08.63.08,1.28l.03,18.35v3.64c-.02,2.38-.2,4.1-.54,5.17s-.98,1.94-1.93,2.61c1.15-.38,2-.81,2.57-1.3.56-.49,1.04-1.24,1.44-2.25.31-.74.52-1.73.64-2.98s.18-3,.18-5.26v-21.26l-4.24.46Zm-.15-8.55c0-.86.29-1.58.87-2.18.58-.6,1.31-.9,2.18-.9s1.6.3,2.18.9c.58.6.87,1.33.87,2.18s-.29,1.6-.87,2.18c-.58.58-1.31.87-2.18.87s-1.6-.29-2.18-.87c-.58-.58-.87-1.31-.87-2.18Zm3.49,1.77v-3.54c0-.41-.19-.62-.56-.62-.58,0-1.1.24-1.54.72-.45.48-.67,1.04-.67,1.67s.22,1.16.67,1.64c.44.48.96.72,1.54.72.38,0,.56-.2.56-.59Z"/>
      <path class="cls-6" d="m179.67,314.31v.57c0,2.04.3,3.82.9,5.35.6,1.53,1.45,2.72,2.55,3.55,1.1.84,2.4,1.26,3.89,1.26.79,0,1.58-.13,2.37-.4.8-.27,1.58-.65,2.36-1.14.78-.5,1.66-1.2,2.63-2.1l.51.69c-1.76,1.71-3.44,2.94-5.02,3.67-1.58.74-3.35,1.1-5.3,1.1s-3.86-.45-5.48-1.33c-1.62-.89-2.87-2.15-3.76-3.77-.89-1.63-1.33-3.46-1.33-5.49,0-2.14.49-4.1,1.48-5.88.98-1.78,2.33-3.17,4.03-4.18,1.7-1.01,3.61-1.51,5.71-1.51,1.8,0,3.44.37,4.94,1.1,1.5.74,2.67,1.77,3.5,3.11.89,1.37,1.39,3.17,1.49,5.42h-15.48Zm6.01,11.78c-1.22-.15-2.19-.38-2.93-.69-.74-.31-1.45-.79-2.16-1.44-1.04-.96-1.86-2.22-2.44-3.79-.58-1.57-.87-3.27-.87-5.12,0-1.28.12-2.46.37-3.54s.63-2.04,1.16-2.9,1.23-1.67,2.12-2.44c-1.95,1.06-3.45,2.46-4.49,4.21-1.04,1.75-1.57,3.7-1.57,5.85,0,1.85.42,3.53,1.26,5.04s2.01,2.7,3.5,3.56c1.5.86,3.15,1.28,4.97,1.28.41,0,.77,0,1.08-.03Zm-6.01-12.68h10.24c-.02-2.31-.25-3.97-.69-4.98-.39-.92-.96-1.64-1.69-2.14-.74-.5-1.56-.76-2.46-.76-3.29,0-5.08,2.63-5.39,7.88Zm13.35,0c-.05-1.27-.28-2.41-.69-3.44-.41-1.03-.98-1.9-1.71-2.61-.73-.71-1.59-1.22-2.58-1.53.99.79,1.71,1.72,2.14,2.8s.65,2.43.65,4.06c0,.27,0,.51-.03.72h2.21Z"/>
      <path class="cls-6" d="m224.61,291.24h.77l10.47,27.31,6.98-17.64c.63-1.59.95-2.93.95-4,0-2.55-1.97-4.17-5.9-4.88v-.8h13.66v.77c-1.11.39-2.13.98-3.04,1.75-.91.77-1.75,1.77-2.5,2.99-.75,1.22-1.5,2.73-2.23,4.53l-10.27,25.85h-.69l-10.34-27.24-9.86,27.24h-.67l-11.09-27.93c-.68-1.71-1.31-3.03-1.89-3.97-.57-.93-1.21-1.64-1.9-2.12-.69-.48-1.56-.84-2.61-1.08v-.8h16.63v.8c-1.47.09-2.52.24-3.16.46-1.25.41-1.87,1.21-1.87,2.41,0,.74.21,1.67.64,2.8l8.03,20.97,9.88-27.44Zm-11.06,30.62l-9.14-23.8c-.5-1.35-.74-2.37-.74-3.05,0-.55.14-1.03.41-1.44s.75-.86,1.44-1.36h-8.06c.63.51,1.18,1.05,1.63,1.62.45.56.88,1.23,1.28,2,.4.77.86,1.8,1.37,3.08l10.53,26.59,1.28-3.64Zm10.83-27.19l-1.39,3.88,10.27,26.93,1.41-3.65-10.29-27.16Zm17.12-2.46c1.08.53,1.84,1.09,2.3,1.68.45.59.75,1.39.89,2.4.86-1.68,1.95-3.04,3.29-4.08h-6.47Z"/>
      <path class="cls-6" d="m250.92,315.75c0-1.99.53-3.83,1.6-5.53,1.07-1.7,2.52-3.05,4.34-4.03,1.82-.98,3.82-1.48,5.99-1.48,1.63,0,3.16.28,4.59.83,1.44.56,2.7,1.34,3.8,2.36,1.09,1.02,1.95,2.21,2.55,3.57s.91,2.79.91,4.27c0,1.97-.53,3.81-1.58,5.52-1.05,1.71-2.49,3.06-4.31,4.04-1.82.98-3.8,1.48-5.94,1.48s-4.18-.49-6.01-1.46c-1.83-.97-3.28-2.31-4.35-4.02-1.07-1.7-1.6-3.56-1.6-5.56Zm7.6,9.57c-.82-.65-1.38-1.13-1.68-1.45-.3-.32-.62-.74-.96-1.27-1.09-1.78-1.64-4.07-1.64-6.88,0-4.65,1.58-7.92,4.75-9.81-1.44.53-2.7,1.3-3.79,2.31-1.09,1.01-1.93,2.16-2.52,3.44-.59,1.28-.89,2.64-.89,4.08s.29,2.75.87,4.06,1.39,2.42,2.44,3.36c.56.46,1.02.8,1.36,1.03.34.22,1.03.6,2.05,1.13Zm-1.98-9.73c0,1.49.15,2.86.45,4.11.3,1.25.73,2.31,1.3,3.2.56.88,1.24,1.56,2.02,2.04.78.48,1.63.72,2.55.72s1.75-.24,2.54-.73c.79-.49,1.45-1.16,2-2.03.55-.86.97-1.93,1.27-3.2.3-1.27.45-2.64.45-4.11,0-1.97-.26-3.71-.78-5.24-.52-1.52-1.26-2.7-2.21-3.54-.95-.84-2.05-1.26-3.3-1.26-1.9,0-3.42.92-4.57,2.77-1.15,1.85-1.72,4.27-1.72,7.26Zm8.91,10.14c2.26-.99,3.98-2.35,5.17-4.07,1.19-1.72,1.78-3.69,1.78-5.92s-.58-4.3-1.73-6.08c-1.15-1.78-2.69-3.04-4.61-3.77,2.62,1.92,3.93,5.18,3.93,9.78,0,2.33-.33,4.27-.99,5.83-.66,1.56-1.71,2.87-3.14,3.93l-.41.31Z"/>
      <path class="cls-6" d="m283.23,309.82c.99-1.92,1.89-3.26,2.68-4.02.8-.76,1.72-1.14,2.76-1.14,1.3,0,2.39.51,3.26,1.54.87,1.03,1.31,2.3,1.31,3.83,0,.98-.2,1.73-.6,2.26s-.97.8-1.71.8c-.63,0-1.15-.21-1.54-.64s-.59-.98-.59-1.64c0-.31.04-.65.13-1.03l.23-.98c.14-.6.21-1.13.21-1.59s-.12-.83-.37-1.09-.58-.4-.99-.4c-.48,0-.95.18-1.41.55s-.95.96-1.48,1.77c-.52.81-1.15,1.95-1.89,3.4v9.91c0,1.42.25,2.43.76,3.03.5.6,1.43,1,2.79,1.21v.69h-11.81v-.69c1.16-.21,1.96-.6,2.39-1.19.43-.59.64-1.6.64-3.04v-10.78c0-1.44-.22-2.46-.66-3.07-.44-.61-1.23-1-2.37-1.17v-.56l8.27-.95v5.01Zm-5.7,15.33h5.13l-.62-.46s-.07-.06-.1-.08l-.33-.26c-.24-.24-.37-.57-.38-.98v-17.48l-4.21.46,1,.72s.05.03.1.08l.33.26c.17.12.28.3.33.53.05.23.08.64.08,1.22v13.45c0,.7-.03,1.14-.1,1.31s-.27.4-.62.69c-.05.04-.08.06-.08.08l-.54.46Zm11.96-19.36c.39.53.59,1.1.59,1.72,0,.53-.09,1.18-.28,1.95-.17.74-.26,1.22-.26,1.46,0,.72.29,1.08.87,1.08.74,0,1.1-.69,1.1-2.08,0-1.76-.68-3.14-2.03-4.13Z"/>
      <path class="cls-6" d="m300.07,316.5l7.37-6.32c1.18-1.03,1.77-1.88,1.77-2.57,0-.99-.92-1.55-2.75-1.67v-.69h9.88v.69c-1.03.1-2.07.44-3.12,1-1.05.57-2.25,1.44-3.61,2.62-.21.17-.35.3-.44.37-.09.08-.15.12-.18.14l-2.75,2.31,6.5,8.75.49.67c.96,1.27,1.83,2.19,2.61,2.76s1.65.91,2.61,1.01v.69h-13.37v-.69c1.83-.12,2.75-.66,2.75-1.62,0-.55-.34-1.29-1.03-2.23l-.41-.56-4-5.52-2.31,1.98v3.72c0,1.42.21,2.43.63,3.03s1.21,1,2.38,1.21v.69h-11.27v-.69c1.16-.21,1.96-.6,2.39-1.19.43-.59.64-1.6.64-3.04v-24.8c0-1.44-.22-2.46-.66-3.07-.44-.61-1.23-1-2.37-1.17v-.56l8.27-.95v25.7Zm-5.7,8.65h5.13l-.62-.46s-.07-.06-.1-.08l-.33-.26c-.24-.24-.37-.57-.38-.98v-31.5l-4.21.46,1,.72s.05.03.1.08l.33.26c.17.12.28.29.33.53.05.23.08.64.08,1.22v27.47c0,.7-.03,1.14-.1,1.31s-.27.4-.62.69c-.05.04-.08.06-.08.08l-.54.46Zm19.66-.05c-1.03-.56-2.12-1.64-3.29-3.23l-6.03-8.24-1.69,1.46,4.34,5.93c.87,1.22,1.31,2.17,1.31,2.85,0,.43-.19.84-.56,1.23h5.93Zm-4.13-16.92c.74-.74,1.59-1.45,2.57-2.13h-3.39c.62.5.92,1,.92,1.51,0,.07-.03.27-.1.62Z"/>
      <path class="cls-6" d="m330.81,305.97l1.08,5.96h-.69c-.51-1.95-1.32-3.49-2.43-4.61-1.1-1.12-2.37-1.68-3.81-1.68-.86,0-1.57.25-2.14.76-.57.5-.86,1.13-.86,1.86,0,.68.23,1.25.68,1.68.45.44,1.48,1.09,3.07,1.96,2.6,1.42,4.42,2.54,5.44,3.36,1.62,1.25,2.44,2.88,2.44,4.88,0,1.01-.2,1.92-.59,2.72s-.97,1.51-1.75,2.1c-.77.6-1.69,1.06-2.75,1.37s-2.22.47-3.46.47c-2.07,0-4.55-.47-7.45-1.41l-.62-7.8h.62c1.54,5.32,3.94,7.98,7.19,7.98,1.15,0,2.09-.34,2.84-1.03.75-.68,1.12-1.58,1.12-2.7s-.44-2.04-1.31-2.72c-.51-.41-1.78-1.17-3.8-2.28-2.02-1.11-3.41-1.99-4.16-2.62-1.21-1.01-1.82-2.29-1.82-3.85,0-1.68.65-3.04,1.96-4.09s3-1.58,5.07-1.58c1.64,0,3.69.42,6.13,1.26Zm-12.48,18.77l.46.15c.67.26,1.44.49,2.31.69l.56.13c-.8-.53-1.46-1.07-1.98-1.6s-1.05-1.26-1.62-2.17l.26,2.8Zm8.45,1.1c1.54-.21,2.75-.74,3.62-1.62.87-.87,1.31-1.99,1.31-3.34s-.5-2.52-1.49-3.54c-.86-.91-2.51-2-4.95-3.29-2.02-1.1-3.38-1.98-4.07-2.64-.69-.67-1.04-1.44-1.04-2.31,0-1.32.74-2.49,2.23-3.52-1.25.41-2.21,1.03-2.89,1.85-.68.82-1.01,1.77-1.01,2.85,0,1.27.44,2.3,1.33,3.11.68.63,2.06,1.53,4.13,2.7,2.24,1.22,3.67,2.11,4.29,2.67.91.82,1.36,1.85,1.36,3.08,0,1.93-.94,3.27-2.82,4Z"/>
    </g>
  </g>
</svg>