<?xml version="1.0" encoding="UTF-8"?>
<svg xmlns="http://www.w3.org/2000/svg" viewBox="0 0 334.56 48.57">
  <defs>
    <style>
      .cls-1, .cls-2 {
        fill: none;
      }

      .cls-1, .cls-2, .cls-3, .cls-4 {
        stroke-miterlimit: 10;
      }

      .cls-1, .cls-4 {
        stroke: #51d941;
      }

      .cls-2, .cls-3 {
        stroke: #088551;
      }

      .cls-5 {
        stroke-width: 0px;
      }

      .cls-5, .cls-3 {
        fill: #088551;
      }

      .cls-4 {
        fill: #51d941;
      }
    </style>
  </defs>
  <g id="_レイヤー_2" data-name="レイヤー 2">
    <path class="cls-4" d="m41.6,3.23c-4.12-2.36-9.95-1.72-13.81,1.82,3.93,2.59,9.97,1.75,13.81-1.82Z"/>
    <path class="cls-4" d="m14.92,1.14c4.5-1.64,9.92-.08,12.76,4.01-4.37,1.9-9.94.1-12.76-4.01Z"/>
    <path class="cls-1" d="m27.73,5.18c1.5,4.04-2.72,7.86.06,11.32"/>
  </g>
  <g id="_レイヤー_3" data-name="レイヤー 3">
    <g>
      <path class="cls-2" d="m20.84,32.6h.06l.1-.04c-1.67-1.51-4.46-2.48-7.28-2.46-2.82.02-5.58,1.02-7.17,2.58,1.55,1.63,4.4,2.67,7.29,2.65,2.89-.02,5.71-1.1,6.99-2.73Z"/>
      <path class="cls-2" d="m.09,32.5c2.45-.46,3.98-.16,6.48.17"/>
      <path class="cls-2" d="m1.15,28.75c5.93-4.43,13.96-5.91,21.08-3.89"/>
      <path class="cls-3" d="m13.44,30.34c-1.13.09-1.9.48-2.37,1.17-.69,1.03-.26,1.9.23,2.56.22.3,1.97,1.04,2.16,1.03,1.64-.11,1.4.07,2.35-.89.66-.67.46-1.87.04-2.77-.35-.76-1.63-1.16-2.42-1.09Z"/>
    </g>
    <g>
      <path class="cls-2" d="m33.5,32.31h-.06l-.1-.04c1.67-1.51,4.45-2.48,7.26-2.46,2.81.02,5.56,1.02,7.15,2.58-1.54,1.63-4.39,2.67-7.27,2.65-2.88-.02-5.7-1.1-6.97-2.73Z"/>
      <path class="cls-2" d="m54.2,32.21c-2.44-.46-3.97-.16-6.46.17"/>
      <path class="cls-2" d="m53.15,28.46c-5.91-4.43-13.93-5.91-21.03-3.89"/>
      <path class="cls-3" d="m40.88,30.05c1.13.09,1.89.48,2.36,1.17.69,1.03.26,1.9-.22,2.56-.22.3-1.96,1.04-2.16,1.03-1.63-.11-1.39.07-2.35-.89-.66-.67-.45-1.87-.04-2.77.35-.76,1.62-1.16,2.41-1.09Z"/>
    </g>
  </g>
  <g id="_レイヤー_4" data-name="レイヤー 4">
    <g>
      <path class="cls-5" d="m91.79,33.92h-.62l-14.02-27.1-1.51,16.88c-.09.93-.13,1.81-.13,2.64,0,2.43.51,4.3,1.53,5.61s2.67,2.22,4.94,2.72v.77h-14.02v-.77c1.25-.43,2.35-1.08,3.31-1.96.96-.87,1.69-1.89,2.21-3.05.55-1.28.95-3.32,1.21-6.11l1.62-17.97c-.65-1.18-1.4-2.03-2.23-2.54-.84-.51-1.9-.8-3.18-.85v-.77h12.42c-.07.17-.11.27-.13.32-.33.76-.49,1.36-.49,1.79,0,.8.44,2.04,1.31,3.74l9.93,19.15,8.21-18.62c.65-1.5.98-2.63.98-3.42s-.34-1.79-1.03-2.97h12.35v.77c-1.71.23-2.95.72-3.72,1.46-.77.74-1.15,1.82-1.15,3.25,0,.45.03.87.08,1.27l.08.62,2.16,18.5c.03.25.06.47.09.65.03.18.11.71.24,1.57.26,1.61.77,2.81,1.53,3.59.76.78,1.94,1.3,3.53,1.57v.77h-16.33v-.77c1.8-.43,3.12-1,3.97-1.71.85-.71,1.27-1.6,1.27-2.68,0-.42-.06-1.1-.18-2.04l-2.52-21.29-11.71,26.97Zm-15.04.25c-.82-.86-1.38-1.57-1.68-2.13-.3-.56-.53-1.27-.68-2.13-.41,1-.86,1.8-1.36,2.39-.5.6-1.21,1.22-2.13,1.87h5.85Zm14.66-1.69l1.41-3.24-11.81-22.84c-.58-1.18-.87-2.04-.87-2.57s.14-1.01.41-1.47h-5.9c.96.66,1.68,1.37,2.16,2.12.65.95,1.21,1.89,1.67,2.82l12.94,25.18Zm13.17,1.69h7.88l-1.33-1.05c-.58-.45-.97-1.42-1.16-2.92l-2.82-23.81c-.03-.43-.05-.73-.05-.9,0-.38.09-.71.26-.98.17-.28.52-.62,1.05-1.03l1.46-1.12h-5.96l3.23,27.5.1.55c.03.4.05.7.05.9,0,.42-.08.74-.24.97-.16.23-.53.55-1.09.95l-1.39.95Z"/>
      <path class="cls-5" d="m122.97,23.82v.55c0,1.98.3,3.71.9,5.2.6,1.49,1.45,2.64,2.55,3.45,1.1.81,2.4,1.22,3.89,1.22.79,0,1.58-.13,2.37-.39.8-.26,1.58-.63,2.36-1.11.78-.48,1.66-1.16,2.63-2.04l.51.67c-1.76,1.66-3.44,2.85-5.02,3.56-1.58.72-3.35,1.07-5.3,1.07s-3.86-.43-5.48-1.3c-1.62-.86-2.87-2.09-3.76-3.66-.89-1.58-1.33-3.36-1.33-5.34,0-2.08.49-3.98,1.48-5.71.98-1.73,2.33-3.08,4.03-4.06,1.7-.98,3.61-1.47,5.71-1.47,1.8,0,3.44.36,4.94,1.07,1.5.72,2.67,1.72,3.5,3.02.89,1.33,1.39,3.08,1.49,5.26h-15.48Zm6.01,11.44c-1.22-.15-2.19-.37-2.93-.67-.74-.3-1.45-.76-2.16-1.4-1.04-.93-1.86-2.16-2.44-3.68-.58-1.52-.87-3.18-.87-4.97,0-1.25.12-2.39.37-3.44s.63-1.99,1.16-2.82,1.23-1.62,2.12-2.37c-1.95,1.03-3.45,2.39-4.49,4.09-1.04,1.69-1.57,3.59-1.57,5.68,0,1.8.42,3.43,1.26,4.9s2.01,2.62,3.5,3.45c1.5.83,3.15,1.25,4.97,1.25.41,0,.77,0,1.08-.02Zm-6.01-12.32h10.24c-.02-2.24-.25-3.86-.69-4.84-.39-.9-.96-1.59-1.69-2.08-.74-.49-1.56-.74-2.46-.74-3.29,0-5.08,2.55-5.39,7.65Zm13.35,0c-.05-1.23-.28-2.34-.69-3.34-.41-1-.98-1.84-1.71-2.53-.73-.69-1.59-1.18-2.58-1.48.99.76,1.71,1.67,2.14,2.72s.65,2.36.65,3.94c0,.27,0,.5-.03.7h2.21Z"/>
      <path class="cls-5" d="m156.16,32.89l-.1.07c-2.31,1.98-4.77,2.97-7.37,2.97-1.87,0-3.57-.43-5.11-1.28-1.54-.86-2.75-2.04-3.63-3.56s-1.32-3.19-1.32-5c0-2.01.51-3.91,1.53-5.68,1.02-1.78,2.39-3.2,4.12-4.26,1.73-1.06,3.57-1.6,5.52-1.6,2.24,0,4.36.78,6.37,2.34V6.57c0-1.38-.21-2.37-.64-2.97-.43-.6-1.22-.98-2.36-1.15v-.55l8.24-.92v29.67c0,1.38.22,2.36.65,2.94.44.58,1.23.97,2.37,1.17v.67h-8.27v-2.54Zm-8.83,2.29c-1.04-.6-1.81-1.1-2.31-1.52-.5-.42-.98-.99-1.46-1.72-1.16-1.81-1.75-3.94-1.75-6.38,0-2.03.32-3.76.95-5.19.63-1.43,1.73-2.9,3.29-4.41-2.16,1.21-3.79,2.68-4.89,4.4-1.1,1.72-1.66,3.64-1.66,5.75,0,2.28.69,4.22,2.07,5.83s3.3,2.69,5.76,3.24Zm8.83-16.88l-.21-.17c-1.11-.93-2.12-1.61-3.02-2.04s-1.78-.65-2.63-.65c-1.22,0-2.29.39-3.23,1.16-.94.77-1.67,1.87-2.18,3.29-.51,1.42-.77,3.1-.77,5.02s.25,3.5.74,4.96c.5,1.46,1.2,2.61,2.12,3.43.92.82,1.97,1.23,3.17,1.23,1.87,0,3.87-1.14,6.01-3.42v-12.81Zm.87,16.03h3.8l-.59-.45s-.07-.04-.1-.07l-.33-.25c-.26-.25-.39-.57-.39-.95l-.03-.5V2.03l-4.21.45,1,.7s.05.02.1.07l.33.25c.17.12.28.27.33.46.05.19.08.6.08,1.23v29.14Z"/>
      <path class="cls-5" d="m172.43,14.59v21.81c0,.93-.03,1.82-.08,2.67-.09,1.73-.28,3.13-.59,4.2s-.79,1.97-1.44,2.7c-.72.81-1.6,1.45-2.64,1.91-1.04.46-2.11.69-3.21.69s-2.19-.22-3.14-.66c-.95-.44-1.7-1.05-2.25-1.82-.55-.77-.82-1.64-.82-2.6,0-.53.09-1,.28-1.41.19-.41.47-.72.83-.95.37-.22.79-.34,1.27-.34.67,0,1.2.21,1.59.64.39.42.59,1,.59,1.73,0,.32,0,.56-.03.72-.03.66-.05,1.08-.05,1.25,0,.7.14,1.25.41,1.67.27.41.66.62,1.16.62,1.13,0,1.92-.82,2.36-2.47.32-1.1.49-3.32.49-6.66v-18.12c0-1.38-.21-2.37-.64-2.97-.43-.6-1.22-.98-2.36-1.15v-.55l8.27-.92Zm-9.91,33.08c-.55-.48-.93-.96-1.14-1.43-.21-.47-.32-1.11-.32-1.91,0-.4,0-.68.03-.85.03-.43.05-.69.05-.77,0-.28-.08-.52-.23-.7-.15-.18-.37-.28-.64-.28-.31,0-.57.16-.8.49-.22.32-.33.72-.33,1.18,0,.88.3,1.7.9,2.47.6.76,1.43,1.36,2.49,1.8Zm3.67-31.59l1.03.7s.03,0,.04.01.03.03.06.06l.33.25c.15.1.26.25.31.45.05.2.08.61.08,1.25l.03,17.82v3.54c-.02,2.31-.2,3.99-.54,5.02s-.98,1.88-1.93,2.53c1.15-.37,2-.79,2.57-1.26.56-.47,1.04-1.2,1.44-2.18.31-.72.52-1.68.64-2.89s.18-2.92.18-5.11V15.64l-4.24.45Zm-.15-8.3c0-.83.29-1.54.87-2.12.58-.58,1.31-.87,2.18-.87s1.6.29,2.18.87c.58.58.87,1.29.87,2.12s-.29,1.55-.87,2.12c-.58.57-1.31.85-2.18.85s-1.6-.28-2.18-.85c-.58-.57-.87-1.27-.87-2.12Zm3.49,1.72v-3.44c0-.4-.19-.6-.56-.6-.58,0-1.1.23-1.54.7-.45.46-.67,1.01-.67,1.62s.22,1.13.67,1.6c.44.46.96.7,1.54.7.38,0,.56-.19.56-.57Z"/>
      <path class="cls-5" d="m180.64,23.82v.55c0,1.98.3,3.71.9,5.2.6,1.49,1.45,2.64,2.55,3.45,1.1.81,2.4,1.22,3.89,1.22.79,0,1.58-.13,2.37-.39.8-.26,1.58-.63,2.36-1.11.78-.48,1.66-1.16,2.63-2.04l.51.67c-1.76,1.66-3.44,2.85-5.02,3.56-1.58.72-3.35,1.07-5.3,1.07s-3.86-.43-5.48-1.3c-1.62-.86-2.87-2.09-3.76-3.66-.89-1.58-1.33-3.36-1.33-5.34,0-2.08.49-3.98,1.48-5.71.98-1.73,2.33-3.08,4.03-4.06,1.7-.98,3.61-1.47,5.71-1.47,1.8,0,3.44.36,4.94,1.07,1.5.72,2.67,1.72,3.5,3.02.89,1.33,1.39,3.08,1.49,5.26h-15.48Zm6.01,11.44c-1.22-.15-2.19-.37-2.93-.67-.74-.3-1.45-.76-2.16-1.4-1.04-.93-1.86-2.16-2.44-3.68-.58-1.52-.87-3.18-.87-4.97,0-1.25.12-2.39.37-3.44s.63-1.99,1.16-2.82,1.23-1.62,2.12-2.37c-1.95,1.03-3.45,2.39-4.49,4.09-1.04,1.69-1.57,3.59-1.57,5.68,0,1.8.42,3.43,1.26,4.9s2.01,2.62,3.5,3.45c1.5.83,3.15,1.25,4.97,1.25.41,0,.77,0,1.08-.02Zm-6.01-12.32h10.24c-.02-2.24-.25-3.86-.69-4.84-.39-.9-.96-1.59-1.69-2.08-.74-.49-1.56-.74-2.46-.74-3.29,0-5.08,2.55-5.39,7.65Zm13.35,0c-.05-1.23-.28-2.34-.69-3.34-.41-1-.98-1.84-1.71-2.53-.73-.69-1.59-1.18-2.58-1.48.99.76,1.71,1.67,2.14,2.72s.65,2.36.65,3.94c0,.27,0,.5-.03.7h2.21Z"/>
      <path class="cls-5" d="m225.58,1.41h.77l10.47,26.52,6.98-17.13c.63-1.55.95-2.84.95-3.89,0-2.48-1.97-4.05-5.9-4.74v-.77h13.66v.75c-1.11.38-2.13.95-3.04,1.7-.91.75-1.75,1.72-2.5,2.9-.75,1.19-1.5,2.66-2.23,4.4l-10.27,25.1h-.69l-10.34-26.45-9.86,26.45h-.67l-11.09-27.12c-.68-1.66-1.31-2.95-1.89-3.85-.57-.91-1.21-1.59-1.9-2.06-.69-.47-1.56-.81-2.61-1.05v-.77h16.63v.77c-1.47.08-2.52.23-3.16.45-1.25.4-1.87,1.18-1.87,2.34,0,.72.21,1.62.64,2.72l8.03,20.37,9.88-26.65Zm-11.06,29.74l-9.14-23.11c-.5-1.31-.74-2.3-.74-2.97,0-.53.14-1,.41-1.4s.75-.84,1.44-1.32h-8.06c.63.5,1.18,1.02,1.63,1.57.45.55.88,1.2,1.28,1.94.4.75.86,1.74,1.37,2.99l10.53,25.83,1.28-3.54Zm10.83-26.4l-1.39,3.77,10.27,26.15,1.41-3.54-10.29-26.37Zm17.12-2.39c1.08.51,1.84,1.06,2.3,1.63.45.57.75,1.35.89,2.33.86-1.63,1.95-2.95,3.29-3.96h-6.47Z"/>
      <path class="cls-5" d="m251.89,25.21c0-1.93.53-3.72,1.6-5.37,1.07-1.65,2.52-2.96,4.34-3.91,1.82-.96,3.82-1.43,5.99-1.43,1.63,0,3.16.27,4.59.81,1.44.54,2.7,1.3,3.8,2.29,1.09.99,1.95,2.14,2.55,3.47s.91,2.7.91,4.15c0,1.91-.53,3.7-1.58,5.36-1.05,1.66-2.49,2.97-4.31,3.93-1.82.96-3.8,1.43-5.94,1.43s-4.18-.47-6.01-1.42c-1.83-.95-3.28-2.25-4.35-3.9-1.07-1.65-1.6-3.45-1.6-5.4Zm7.6,9.3c-.82-.63-1.38-1.1-1.68-1.41-.3-.31-.62-.72-.96-1.23-1.09-1.73-1.64-3.96-1.64-6.68,0-4.52,1.58-7.69,4.75-9.52-1.44.51-2.7,1.26-3.79,2.24-1.09.98-1.93,2.09-2.52,3.34-.59,1.25-.89,2.57-.89,3.96s.29,2.68.87,3.94,1.39,2.35,2.44,3.27c.56.45,1.02.78,1.36,1,.34.22,1.03.58,2.05,1.1Zm-1.98-9.45c0,1.45.15,2.78.45,3.99.3,1.21.73,2.25,1.3,3.1.56.86,1.24,1.52,2.02,1.98.78.47,1.63.7,2.55.7s1.75-.24,2.54-.71c.79-.47,1.45-1.13,2-1.97.55-.84.97-1.87,1.27-3.1.3-1.23.45-2.56.45-3.99,0-1.91-.26-3.61-.78-5.09-.52-1.48-1.26-2.63-2.21-3.44-.95-.81-2.05-1.22-3.3-1.22-1.9,0-3.42.9-4.57,2.69-1.15,1.79-1.72,4.15-1.72,7.05Zm8.91,9.85c2.26-.96,3.98-2.28,5.17-3.95,1.19-1.67,1.78-3.59,1.78-5.75s-.58-4.18-1.73-5.91c-1.15-1.73-2.69-2.95-4.61-3.67,2.62,1.86,3.93,5.03,3.93,9.5,0,2.26-.33,4.15-.99,5.66-.66,1.51-1.71,2.78-3.14,3.81l-.41.3Z"/>
      <path class="cls-5" d="m284.2,19.46c.99-1.86,1.89-3.16,2.68-3.9.8-.74,1.72-1.11,2.76-1.11,1.3,0,2.39.5,3.26,1.5.87,1,1.31,2.24,1.31,3.71,0,.95-.2,1.68-.6,2.19s-.97.77-1.71.77c-.63,0-1.15-.21-1.54-.62s-.59-.95-.59-1.6c0-.3.04-.63.13-1l.23-.95c.14-.58.21-1.1.21-1.55s-.12-.8-.37-1.06-.58-.39-.99-.39c-.48,0-.95.18-1.41.54s-.95.93-1.48,1.72c-.52.79-1.15,1.89-1.89,3.3v9.62c0,1.38.25,2.36.76,2.94.5.58,1.43.97,2.79,1.17v.67h-11.81v-.67c1.16-.2,1.96-.59,2.39-1.16.43-.57.64-1.56.64-2.95v-10.47c0-1.4-.22-2.39-.66-2.98-.44-.59-1.23-.97-2.37-1.13v-.55l8.27-.92v4.86Zm-5.7,14.88h5.13l-.62-.45s-.07-.06-.1-.07l-.33-.25c-.24-.23-.37-.55-.38-.95V15.64l-4.21.45,1,.7s.05.02.1.07l.33.25c.17.12.28.29.33.51.05.22.08.62.08,1.18v13.06c0,.68-.03,1.11-.1,1.27s-.27.39-.62.67c-.05.03-.08.06-.08.07l-.54.45Zm11.96-18.8c.39.52.59,1.07.59,1.67,0,.51-.09,1.15-.28,1.89-.17.72-.26,1.19-.26,1.42,0,.7.29,1.05.87,1.05.74,0,1.1-.67,1.1-2.02,0-1.71-.68-3.05-2.03-4.01Z"/>
      <path class="cls-5" d="m301.04,25.94l7.37-6.13c1.18-1,1.77-1.83,1.77-2.49,0-.96-.92-1.5-2.75-1.62v-.67h9.88v.67c-1.03.1-2.07.42-3.12.97-1.05.55-2.25,1.4-3.61,2.54-.21.17-.35.29-.44.36-.09.07-.15.12-.18.14l-2.75,2.24,6.5,8.5.49.65c.96,1.23,1.83,2.12,2.61,2.68s1.65.88,2.61.98v.67h-13.37v-.67c1.83-.12,2.75-.64,2.75-1.57,0-.53-.34-1.25-1.03-2.17l-.41-.55-4-5.36-2.31,1.92v3.62c0,1.38.21,2.36.63,2.94s1.21.97,2.38,1.17v.67h-11.27v-.67c1.16-.2,1.96-.59,2.39-1.16.43-.57.64-1.56.64-2.95V6.57c0-1.4-.22-2.39-.66-2.98-.44-.59-1.23-.97-2.37-1.13v-.55l8.27-.92v24.95Zm-5.7,8.4h5.13l-.62-.45s-.07-.06-.1-.07l-.33-.25c-.24-.23-.37-.55-.38-.95V2.03l-4.21.45,1,.7s.05.02.1.07l.33.25c.17.12.28.29.33.51.05.22.08.62.08,1.18v26.67c0,.68-.03,1.11-.1,1.27s-.27.39-.62.67c-.05.03-.08.06-.08.07l-.54.45Zm19.66-.05c-1.03-.55-2.12-1.6-3.29-3.14l-6.03-8-1.69,1.42,4.34,5.76c.87,1.18,1.31,2.1,1.31,2.77,0,.42-.19.81-.56,1.2h5.93Zm-4.13-16.43c.74-.71,1.59-1.4,2.57-2.07h-3.39c.62.48.92.97.92,1.47,0,.07-.03.27-.1.6Z"/>
      <path class="cls-5" d="m331.79,15.72l1.08,5.78h-.69c-.51-1.89-1.32-3.39-2.43-4.48-1.1-1.09-2.37-1.63-3.81-1.63-.86,0-1.57.24-2.14.73-.57.49-.86,1.09-.86,1.81,0,.66.23,1.21.68,1.63.45.42,1.48,1.06,3.07,1.91,2.6,1.38,4.42,2.47,5.44,3.27,1.62,1.21,2.44,2.79,2.44,4.74,0,.98-.2,1.86-.59,2.64s-.97,1.46-1.75,2.04c-.77.58-1.69,1.03-2.75,1.33s-2.22.46-3.46.46c-2.07,0-4.55-.46-7.45-1.37l-.62-7.58h.62c1.54,5.17,3.94,7.75,7.19,7.75,1.15,0,2.09-.33,2.84-1,.75-.66,1.12-1.54,1.12-2.62s-.44-1.98-1.31-2.64c-.51-.4-1.78-1.14-3.8-2.22-2.02-1.08-3.41-1.93-4.16-2.54-1.21-.98-1.82-2.23-1.82-3.74,0-1.63.65-2.95,1.96-3.98s3-1.53,5.07-1.53c1.64,0,3.69.41,6.13,1.22Zm-12.48,18.22l.46.15c.67.25,1.44.47,2.31.67l.56.13c-.8-.51-1.46-1.03-1.98-1.56s-1.05-1.23-1.62-2.11l.26,2.72Zm8.45,1.07c1.54-.2,2.75-.72,3.62-1.57.87-.85,1.31-1.93,1.31-3.24s-.5-2.44-1.49-3.44c-.86-.88-2.51-1.94-4.95-3.19-2.02-1.06-3.38-1.92-4.07-2.57-.69-.65-1.04-1.4-1.04-2.24,0-1.28.74-2.42,2.23-3.42-1.25.4-2.21,1-2.89,1.8-.68.8-1.01,1.72-1.01,2.77,0,1.23.44,2.24,1.33,3.02.68.62,2.06,1.49,4.13,2.62,2.24,1.18,3.67,2.04,4.29,2.59.91.8,1.36,1.8,1.36,2.99,0,1.88-.94,3.18-2.82,3.89Z"/>
    </g>
  </g>
</svg>